HIERARCHY
ROOT ui
{
	 OFFSET 0 0 0
	 CHANNELS 3 XPosition YPosition Z Position
	 EndSite
	 {
	 OFFSET 0 -1 0
	 }
}
ROOT li
{
	 OFFSET 0 0 0
	 CHANNELS 3 XPosition YPosition Z Position
	 EndSite
	 {
	 OFFSET 0 -1 0
	 }
}
ROOT ul
{
	 OFFSET 0 0 0
	 CHANNELS 3 XPosition YPosition Z Position
	 EndSite
	 {
	 OFFSET 0 -1 0
	 }
}
ROOT ll
{
	 OFFSET 0 0 0
	 CHANNELS 3 XPosition YPosition Z Position
	 EndSite
	 {
	 OFFSET 0 -1 0
	 }
}
ROOT tt
{
	 OFFSET 0 0 0
	 CHANNELS 3 XPosition YPosition Z Position
	 EndSite
	 {
	 OFFSET 0 -1 0
	 }
}
ROOT tb
{
	 OFFSET 0 0 0
	 CHANNELS 3 XPosition YPosition Z Position
	 EndSite
	 {
	 OFFSET 0 -1 0
	 }
}
ROOT td
{
	 OFFSET 0 0 0
	 CHANNELS 3 XPosition YPosition Z Position
	 EndSite
	 {
	 OFFSET 0 -1 0
	 }
}
ROOT v
{
	 OFFSET 0 0 0
	 CHANNELS 3 XPosition YPosition Z Position
	 EndSite
	 {
	 OFFSET 0 -1 0
	 }
}
ROOT bn
{
	 OFFSET 0 0 0
	 CHANNELS 3 XPosition YPosition Z Position
	 EndSite
	 {
	 OFFSET 0 -1 0
	 }
}
MOTION
Frames: 21
Frame Time: 0.002
-4.246700182557106E-5	-0.0017053240537643433	0		0.484706298828125	-2.36842041015625	0		-0.9992777709960937	-0.009376740455627442	0		-0.8060217895507813	-2.275608154296875	0		1.59336474609375	-0.6392251586914063	0		3.246414794921875	-0.2575400390625	0		4.653443359375	-0.13611128234863282	0		5.599533203125	0.18841273498535155	0		-0.1387044677734375	5.95312255859375	0		
-0.021344045639038085	-0.0060888900756835935	0		0.4827395935058594	-2.371030517578125	0		-0.9954595336914063	-0.0062710027694702145	0		-0.7720502319335938	-2.2819326171875	0		1.5932041015625	-0.63972216796875	0		3.25109765625	-0.26489810180664064	0		4.64221875	-0.13604443359375	0		5.59926513671875	0.18843484497070312	0		-0.14070391845703126	5.95341650390625	0		
-0.00632560396194458	0.009961560249328613	0		0.4599143981933594	-2.364341064453125	0		-0.9916510009765624	-0.004177793979644775	0		-0.805915771484375	-2.277238037109375	0		1.6038516845703126	-0.6534011840820313	0		3.244197021484375	-0.2450970458984375	0		4.6478779296875	-0.14425813293457032	0		5.59900390625	0.18843331909179686	0		-0.14071861267089844	5.95166455078125	0		
5.328840017318725E-4	0.015131892204284668	0		0.4889649353027344	-2.3664404296875	0		-0.9878202514648438	-0.0010865319967269897	0		-0.7638028564453125	-2.274691650390625	0		1.6128682861328125	-0.6430584106445313	0		3.24284912109375	-0.25539564514160157	0		4.641787109375	-0.13630706787109376	0		5.59287158203125	0.19650422668457032	0		-0.17478388977050782	5.94541748046875	0		
0.010178263664245606	0.005264976978302002	0		0.48700958251953125	-2.369069580078125	0		-0.99209716796875	-0.005868383884429932	0		-0.7678138427734374	-2.28044580078125	0		1.592761474609375	-0.6412823486328125	0		3.2827470703125	-0.2503087921142578	0		4.64158544921875	-0.1364534149169922	0		5.598509765625	0.18838720703125	0		-0.19088301086425782	5.93489990234375	0		
-0.006980070114135742	0.007806579113006592	0		0.47618121337890623	-2.36355908203125	0		-0.9963438720703125	-0.009638331413269042	0		-0.7697715454101562	-2.283218017578125	0		1.5926351318359375	-0.6417996215820313	0		3.2485185546875	-0.25412147521972656	0		4.63422265625	-0.14849855041503907	0		5.598283203125	0.1883532257080078	0		-0.027379066467285156	5.96175146484375	0		
0.0026856679916381835	-0.0030340750217437745	0		0.48515451049804686	-2.37232861328125	0		-0.9924856567382813	-0.007508887767791748	0		-0.76968994140625	-2.28400341796875	0		1.5925240478515625	-0.6423076782226562	0		3.245289306640625	-0.2593908996582031	0		4.6340537109375	-0.14864970397949218	0		5.58807568359375	0.18846116638183594	0		-0.19367066955566406	5.93446435546875	0		
0.002519742965698242	-0.003710977077484131	0		0.49616891479492187	-2.379109619140625	0		-0.9926510620117187	-0.008298517227172852	0		-0.7857841186523438	-2.29753466796875	0		1.5663175048828124	-0.6504271240234375	0		3.252977783203125	-0.2718150939941406	0		4.6359619140625	-0.1448313751220703	0		5.6019736328125	0.19421356201171874	0		-0.17739508056640624	5.94151806640625	0		
0.012519005775451661	0.005488143920898437	0		0.4665445556640625	-2.36128271484375	0		-0.9846942138671875	-0.00217811393737793	0		-0.7535099487304687	-2.2867373046875	0		1.6123255615234375	-0.64557568359375	0		3.25036669921875	-0.23707965087890626	0		4.6409482421875	-0.13705836486816406	0		5.6059521484375	0.2041053466796875	0		-0.17916792297363282	5.94185693359375	0		
0.00935563087463379	0.0019001569747924805	0		0.4875215148925781	-2.372166015625	0		-0.9929133911132813	-0.009796594619750977	0		-0.8033049926757813	-2.28073388671875	0		1.595344482421875	-0.6408005981445313	0		3.222930908203125	-0.26099093627929687	0		4.62880029296875	-0.14004327392578125	0		5.5975830078125	0.18816363525390625	0		-0.21117982482910155	5.921650390625	0		
0.009257723808288574	0.0012954139709472655	0		0.48562399291992187	-2.3746962890625	0		-0.9930101928710937	-0.010497817039489746	0		-0.7692575073242187	-2.2868984375	0		1.5922662353515624	-0.6442098388671875	0		3.24794091796875	-0.2556413421630859	0		4.633587890625	-0.1492733154296875	0		5.59746728515625	0.18809681701660155	0		-0.21184756469726562	5.9210244140625	0		
-0.007776730060577393	0.003958674907684326	0		0.4768724365234375	-2.367103271484375	0		-0.9971293334960938	-0.014107035636901856	0		-0.8050846557617187	-2.284037353515625	0		1.5922457275390625	-0.6446436767578125	0		3.253786376953125	-0.2630103759765625	0		4.62943896484375	-0.15537722778320312	0		5.5973720703125	0.18802247619628906	0		-0.17837612915039064	5.92594921875	0		
-0.010895748138427735	-5.458040237426758E-4	0		0.4609661560058594	-2.370385498046875	0		-0.9931495361328125	-0.011792621612548827	0		-0.759115966796875	-2.296293701171875	0		1.5922364501953126	-0.6450573120117188	0		3.252053466796875	-0.241259765625	0		4.63347265625	-0.14959449768066407	0		5.59140625	0.19602566528320312	0		-0.1637941131591797	5.93517724609375	0		
0.009065034866333008	-3.3983901143074034E-4	0		0.4900805969238281	-2.372268310546875	0		-0.98914453125	-0.008439723014831544	0		-0.7987498779296875	-2.279311279296875	0		1.5973319091796876	-0.6385196533203125	0		3.24178515625	-0.2583831787109375	0		4.6334326171875	-0.14975250244140625	0		5.5972275390625	0.18785858154296875	0		-0.1794398956298828	5.92485986328125	0		
-8.515779972076416E-4	0.008316377639770507	0		0.4783041687011719	-2.36555029296875	0		-0.9932412719726562	-0.01293597412109375	0		-0.73076220703125	-2.289791259765625	0		1.595279541015625	-0.6428607177734375	0		3.261953125	-0.24491450500488282	0		4.6183193359375	-0.15569857788085936	0		5.59717236328125	0.1877722625732422	0		-0.17990113830566407	5.924365234375	0		
0.008986571311950683	-0.0012700459957122802	0		0.48626812744140624	-2.377077880859375	0		-0.9932766723632812	-0.013449383735656737	0		-0.7666196899414063	-2.28779150390625	0		1.59224365234375	-0.6461654663085937	0		3.235852294921875	-0.2507942199707031	0		4.6203203125	-0.15387765502929687	0		5.59712353515625	0.18768411254882814	0		-0.22953565979003906	5.90858154296875	0		
0.0018571640253067017	-0.008589475631713868	0		0.48637310791015625	-2.37746630859375	0		-0.9973507690429687	-0.01686899757385254	0		-0.7685472412109375	-2.290225341796875	0		1.5922474365234376	-0.6464890747070312	0		3.226861328125	-0.24889833068847655	0		4.61518603515625	-0.1619548034667969	0		5.58707958984375	0.18773199462890625	0		-0.181686279296875	5.924490234375	0		
-9.598699808120727E-4	0.007065815925598145	0		0.46153256225585937	-2.3724833984375	0		-0.98929150390625	-0.010416019439697265	0		-0.7925018920898438	-2.293321533203125	0		1.59528564453125	-0.643830810546875	0		3.247603271484375	-0.2663982238769531	0		4.61823974609375	-0.1561374053955078	0		5.59114208984375	0.19558676147460938	0		-0.2141417236328125	5.91653515625	0		
0.011911836624145508	5.372779965400696E-4	0		0.49465155029296876	-2.369263671875	0		-0.98529541015625	-0.00786956787109375	0		-0.7493875732421875	-2.290297607421875	0		1.6003660888671876	-0.63717578125	0		3.249938720703125	-0.23962583923339845	0		4.61740673828125	-0.14125804138183592	0		5.59619677734375	0.20343112182617187	0		-0.18040220642089844	5.920708984375	0		
0.008811291694641113	-0.0027404699325561522	0		0.48859796142578127	-2.376479736328125	0		-0.9893955078125	-0.01117624282836914	0		-0.7643078002929687	-2.2874453125	0		1.5952386474609375	-0.6443582763671875	0		3.232659423828125	-0.2565740051269531	0		4.6311748046875	-0.15456951904296876	0		5.59691015625	0.1873383026123047	0		-0.19682191467285157	5.91260009765625	0		
-0.0011492019891738892	0.006107522964477539	0		0.4776881103515625	-2.370599365234375	0		-0.9935324096679687	-0.015446710586547851	0		-0.7683572387695312	-2.29170703125	0		1.5921395263671876	-0.6475430908203125	0		3.2356533203125	-0.25177793884277344	0		4.60911279296875	-0.15338059997558592	0		5.58682080078125	0.18740180969238282	0		-0.19713255310058594	5.9123056640625	0		
